<mxfile host="Electron" modified="2024-01-23T14:27:49.390Z" agent="Mozilla/5.0 (Windows NT 10.0; Win64; x64) AppleWebKit/537.36 (KHTML, like Gecko) draw.io/22.0.3 Chrome/114.0.5735.289 Electron/25.8.4 Safari/537.36" etag="SRzOQWUJ91aAlPTxFnIR" version="22.0.3" type="device" pages="8">
  <diagram id="3A87whFvk-pIjwNuYbik" name="overview">
    <mxGraphModel dx="2058" dy="1180" grid="1" gridSize="10" guides="1" tooltips="1" connect="1" arrows="1" fold="1" page="1" pageScale="1" pageWidth="1169" pageHeight="827" math="0" shadow="0">
      <root>
        <mxCell id="0" />
        <mxCell id="1" parent="0" />
        <mxCell id="1G-eFZSkNAMvVthV0UeM-1" value="Basic attributes" style="rounded=1;whiteSpace=wrap;html=1;strokeWidth=2;fillColor=#F5F5F5;strokeColor=#4D4D4D;" parent="1" vertex="1">
          <mxGeometry x="250" y="110" width="100" height="80" as="geometry" />
        </mxCell>
        <mxCell id="1G-eFZSkNAMvVthV0UeM-2" value="Access definition" style="rounded=1;whiteSpace=wrap;html=1;fillColor=#F5F5F5;strokeColor=#4D4D4D;strokeWidth=2;" parent="1" vertex="1">
          <mxGeometry x="370" y="110" width="100" height="80" as="geometry" />
        </mxCell>
        <mxCell id="1G-eFZSkNAMvVthV0UeM-3" value="Members" style="rounded=1;whiteSpace=wrap;html=1;fillColor=#F5F5F5;strokeColor=#4D4D4D;strokeWidth=2;" parent="1" vertex="1">
          <mxGeometry x="610" y="110" width="100" height="80" as="geometry" />
        </mxCell>
        <mxCell id="1G-eFZSkNAMvVthV0UeM-4" value="Included in" style="rounded=1;whiteSpace=wrap;html=1;fillColor=#F5F5F5;strokeColor=#4D4D4D;strokeWidth=2;" parent="1" vertex="1">
          <mxGeometry x="730" y="110" width="100" height="80" as="geometry" />
        </mxCell>
        <mxCell id="1G-eFZSkNAMvVthV0UeM-5" value="Role history" style="rounded=1;whiteSpace=wrap;html=1;fillColor=#F5F5F5;strokeColor=#4D4D4D;strokeWidth=2;" parent="1" vertex="1">
          <mxGeometry x="850" y="110" width="100" height="80" as="geometry" />
        </mxCell>
        <mxCell id="1G-eFZSkNAMvVthV0UeM-7" value="Role lifecycle" style="text;html=1;strokeColor=none;fillColor=none;align=left;verticalAlign=middle;whiteSpace=wrap;rounded=0;" parent="1" vertex="1">
          <mxGeometry x="160" y="270" width="90" height="20" as="geometry" />
        </mxCell>
        <mxCell id="1G-eFZSkNAMvVthV0UeM-10" value="Role name" style="text;html=1;strokeColor=none;fillColor=none;align=left;verticalAlign=middle;whiteSpace=wrap;rounded=0;" parent="1" vertex="1">
          <mxGeometry x="160" y="210" width="90" height="20" as="geometry" />
        </mxCell>
        <mxCell id="1G-eFZSkNAMvVthV0UeM-12" value="Description" style="text;html=1;strokeColor=none;fillColor=none;align=left;verticalAlign=middle;whiteSpace=wrap;rounded=0;" parent="1" vertex="1">
          <mxGeometry x="160" y="300" width="90" height="20" as="geometry" />
        </mxCell>
        <mxCell id="1G-eFZSkNAMvVthV0UeM-16" value="Owner" style="text;html=1;strokeColor=none;fillColor=none;align=left;verticalAlign=middle;whiteSpace=wrap;rounded=0;" parent="1" vertex="1">
          <mxGeometry x="160" y="392" width="90" height="20" as="geometry" />
        </mxCell>
        <mxCell id="1G-eFZSkNAMvVthV0UeM-17" value="Risk level" style="text;html=1;strokeColor=none;fillColor=none;align=left;verticalAlign=middle;whiteSpace=wrap;rounded=0;" parent="1" vertex="1">
          <mxGeometry x="160" y="330" width="90" height="20" as="geometry" />
        </mxCell>
        <mxCell id="1G-eFZSkNAMvVthV0UeM-19" value="Role type" style="text;html=1;strokeColor=none;fillColor=none;align=left;verticalAlign=middle;whiteSpace=wrap;rounded=0;" parent="1" vertex="1">
          <mxGeometry x="160" y="240" width="60" height="20" as="geometry" />
        </mxCell>
        <mxCell id="1G-eFZSkNAMvVthV0UeM-23" value="Approval policy" style="text;html=1;strokeColor=none;fillColor=none;align=left;verticalAlign=middle;whiteSpace=wrap;rounded=0;" parent="1" vertex="1">
          <mxGeometry x="160" y="422" width="90" height="20" as="geometry" />
        </mxCell>
        <mxCell id="1G-eFZSkNAMvVthV0UeM-25" value="Provisioning" style="rounded=1;whiteSpace=wrap;html=1;fillColor=#F5F5F5;strokeColor=#4D4D4D;strokeWidth=2;" parent="1" vertex="1">
          <mxGeometry x="490" y="110" width="100" height="80" as="geometry" />
        </mxCell>
        <mxCell id="1G-eFZSkNAMvVthV0UeM-26" value="Requestable" style="text;html=1;strokeColor=none;fillColor=none;align=left;verticalAlign=middle;whiteSpace=wrap;rounded=0;" parent="1" vertex="1">
          <mxGeometry x="160" y="361" width="90" height="20" as="geometry" />
        </mxCell>
        <mxCell id="1G-eFZSkNAMvVthV0UeM-33" value="Overview" style="rounded=1;whiteSpace=wrap;html=1;strokeWidth=2;fillColor=#dae8fc;strokeColor=#4D4D4D;" parent="1" vertex="1">
          <mxGeometry x="130" y="110" width="100" height="80" as="geometry" />
        </mxCell>
        <mxCell id="P50KrbP4HmJZUCIHnPDl-1" value="Pending changes" style="rounded=1;whiteSpace=wrap;html=1;fillColor=#F5F5F5;strokeColor=#4D4D4D;strokeWidth=2;" parent="1" vertex="1">
          <mxGeometry x="970" y="110" width="100" height="80" as="geometry" />
        </mxCell>
        <mxCell id="eciPkCi4O2QeqwqkUotK-1" value="Additional information about the role, that is not visible in the basic view.&lt;br&gt;IDM engineer can define what elements of the role will be displayed here." style="text;html=1;strokeColor=none;fillColor=none;align=left;verticalAlign=middle;whiteSpace=wrap;rounded=0;" parent="1" vertex="1">
          <mxGeometry x="160" y="472" width="400" height="30" as="geometry" />
        </mxCell>
        <mxCell id="eciPkCi4O2QeqwqkUotK-2" value="Example:&lt;br&gt;&amp;nbsp;- the role owner is selected automatically by rule: &amp;lt;documentation of the &quot;owner&quot; assignment policy&amp;gt;&lt;br&gt;- role modification is in approval. see pending changes" style="text;html=1;strokeColor=none;fillColor=none;align=left;verticalAlign=middle;whiteSpace=wrap;rounded=0;" parent="1" vertex="1">
          <mxGeometry x="190" y="502" width="580" height="60" as="geometry" />
        </mxCell>
        <mxCell id="3fYDQILZJDud57Zzu992-1" value="" style="endArrow=none;dashed=1;html=1;rounded=0;" parent="1" edge="1">
          <mxGeometry width="50" height="50" relative="1" as="geometry">
            <mxPoint x="160" y="452" as="sourcePoint" />
            <mxPoint x="670" y="452" as="targetPoint" />
          </mxGeometry>
        </mxCell>
        <mxCell id="WzB7jxbugxswglh3kRuK-1" value="ABC:User" style="text;html=1;strokeColor=none;fillColor=none;align=left;verticalAlign=middle;whiteSpace=wrap;rounded=0;fontStyle=1" vertex="1" parent="1">
          <mxGeometry x="260" y="210" width="90" height="20" as="geometry" />
        </mxCell>
        <mxCell id="WzB7jxbugxswglh3kRuK-2" value="Application role" style="text;html=1;strokeColor=none;fillColor=none;align=left;verticalAlign=middle;whiteSpace=wrap;rounded=0;fontStyle=0" vertex="1" parent="1">
          <mxGeometry x="260" y="240" width="120" height="20" as="geometry" />
        </mxCell>
        <mxCell id="WzB7jxbugxswglh3kRuK-3" value="Active" style="text;html=1;strokeColor=none;fillColor=none;align=left;verticalAlign=middle;whiteSpace=wrap;rounded=0;fontStyle=0" vertex="1" parent="1">
          <mxGeometry x="260" y="270" width="120" height="20" as="geometry" />
        </mxCell>
        <mxCell id="WzB7jxbugxswglh3kRuK-4" value="This is description of the role...." style="text;html=1;strokeColor=none;fillColor=none;align=left;verticalAlign=top;whiteSpace=wrap;rounded=0;" vertex="1" parent="1">
          <mxGeometry x="260" y="300" width="400" height="50" as="geometry" />
        </mxCell>
        <mxCell id="WzB7jxbugxswglh3kRuK-5" value="Yes" style="text;html=1;strokeColor=none;fillColor=none;align=left;verticalAlign=middle;whiteSpace=wrap;rounded=0;" vertex="1" parent="1">
          <mxGeometry x="260" y="361" width="90" height="20" as="geometry" />
        </mxCell>
        <mxCell id="WzB7jxbugxswglh3kRuK-6" value="John Doe" style="text;html=1;strokeColor=none;fillColor=none;align=left;verticalAlign=middle;whiteSpace=wrap;rounded=0;" vertex="1" parent="1">
          <mxGeometry x="260" y="392" width="90" height="20" as="geometry" />
        </mxCell>
        <mxCell id="WzB7jxbugxswglh3kRuK-7" value="Level 2 - manager and owner" style="text;html=1;strokeColor=none;fillColor=none;align=left;verticalAlign=middle;whiteSpace=wrap;rounded=0;" vertex="1" parent="1">
          <mxGeometry x="260" y="422" width="220" height="20" as="geometry" />
        </mxCell>
        <mxCell id="WzB7jxbugxswglh3kRuK-9" value="3" style="text;html=1;strokeColor=none;fillColor=none;align=left;verticalAlign=middle;whiteSpace=wrap;rounded=0;" vertex="1" parent="1">
          <mxGeometry x="260" y="330" width="90" height="20" as="geometry" />
        </mxCell>
      </root>
    </mxGraphModel>
  </diagram>
  <diagram name="basic" id="6OC0i7sXF7R7en5TQ4EK">
    <mxGraphModel dx="2058" dy="1180" grid="1" gridSize="10" guides="1" tooltips="1" connect="1" arrows="1" fold="1" page="1" pageScale="1" pageWidth="1169" pageHeight="827" math="0" shadow="0">
      <root>
        <mxCell id="0" />
        <mxCell id="1" parent="0" />
        <mxCell id="aLiUqm1xqDws6lzNXrsL-12" value="Role lifecycle" style="text;html=1;strokeColor=none;fillColor=none;align=left;verticalAlign=middle;whiteSpace=wrap;rounded=0;" parent="1" vertex="1">
          <mxGeometry x="160" y="270" width="90" height="20" as="geometry" />
        </mxCell>
        <mxCell id="aLiUqm1xqDws6lzNXrsL-18" value="Role name" style="text;html=1;strokeColor=none;fillColor=none;align=left;verticalAlign=middle;whiteSpace=wrap;rounded=0;" parent="1" vertex="1">
          <mxGeometry x="160" y="210" width="90" height="20" as="geometry" />
        </mxCell>
        <mxCell id="aLiUqm1xqDws6lzNXrsL-19" value="" style="rounded=0;whiteSpace=wrap;html=1;" parent="1" vertex="1">
          <mxGeometry x="260" y="210" width="400" height="20" as="geometry" />
        </mxCell>
        <mxCell id="aLiUqm1xqDws6lzNXrsL-20" value="Description" style="text;html=1;strokeColor=none;fillColor=none;align=left;verticalAlign=middle;whiteSpace=wrap;rounded=0;" parent="1" vertex="1">
          <mxGeometry x="160" y="300" width="90" height="20" as="geometry" />
        </mxCell>
        <mxCell id="aLiUqm1xqDws6lzNXrsL-21" value="" style="rounded=0;whiteSpace=wrap;html=1;" parent="1" vertex="1">
          <mxGeometry x="260" y="300" width="400" height="50" as="geometry" />
        </mxCell>
        <mxCell id="aLiUqm1xqDws6lzNXrsL-22" value="Environment" style="text;html=1;strokeColor=none;fillColor=none;align=left;verticalAlign=middle;whiteSpace=wrap;rounded=0;fontColor=#C6C6C6;" parent="1" vertex="1">
          <mxGeometry x="160" y="359" width="90" height="20" as="geometry" />
        </mxCell>
        <mxCell id="aLiUqm1xqDws6lzNXrsL-23" value="" style="rounded=0;whiteSpace=wrap;html=1;fontColor=#C6C6C6;strokeColor=#C6C6C6;" parent="1" vertex="1">
          <mxGeometry x="260" y="359" width="400" height="20" as="geometry" />
        </mxCell>
        <mxCell id="aLiUqm1xqDws6lzNXrsL-24" value="Owner" style="text;html=1;strokeColor=none;fillColor=none;align=left;verticalAlign=middle;whiteSpace=wrap;rounded=0;" parent="1" vertex="1">
          <mxGeometry x="160" y="389" width="90" height="20" as="geometry" />
        </mxCell>
        <mxCell id="aLiUqm1xqDws6lzNXrsL-28" value="Risk level" style="text;html=1;strokeColor=none;fillColor=none;align=left;verticalAlign=middle;whiteSpace=wrap;rounded=0;" parent="1" vertex="1">
          <mxGeometry x="160" y="449" width="90" height="20" as="geometry" />
        </mxCell>
        <mxCell id="aLiUqm1xqDws6lzNXrsL-29" value="" style="rounded=0;whiteSpace=wrap;html=1;" parent="1" vertex="1">
          <mxGeometry x="260" y="449" width="400" height="20" as="geometry" />
        </mxCell>
        <mxCell id="aLiUqm1xqDws6lzNXrsL-32" value="Role type" style="text;html=1;strokeColor=none;fillColor=none;align=left;verticalAlign=middle;whiteSpace=wrap;rounded=0;" parent="1" vertex="1">
          <mxGeometry x="160" y="240" width="60" height="20" as="geometry" />
        </mxCell>
        <mxCell id="aLiUqm1xqDws6lzNXrsL-33" value="&lt;font color=&quot;#4d4d4d&quot; style=&quot;font-size: 9px;&quot;&gt;&lt;sub&gt;Role archetype&lt;/sub&gt;&lt;/font&gt;" style="rounded=0;whiteSpace=wrap;html=1;align=left;strokeColor=#E6E6E6;" parent="1" vertex="1">
          <mxGeometry x="260" y="240" width="400" height="20" as="geometry" />
        </mxCell>
        <mxCell id="aLiUqm1xqDws6lzNXrsL-34" value="&lt;font color=&quot;#4d4d4d&quot; style=&quot;font-size: 9px;&quot;&gt;&lt;sub&gt;Lifecycle state&lt;/sub&gt;&lt;/font&gt;" style="rounded=0;whiteSpace=wrap;html=1;align=left;strokeColor=#E6E6E6;" parent="1" vertex="1">
          <mxGeometry x="260" y="270" width="400" height="20" as="geometry" />
        </mxCell>
        <mxCell id="aLiUqm1xqDws6lzNXrsL-40" value="Approval policy" style="text;html=1;strokeColor=none;fillColor=none;align=left;verticalAlign=middle;whiteSpace=wrap;rounded=0;" parent="1" vertex="1">
          <mxGeometry x="160" y="419" width="90" height="20" as="geometry" />
        </mxCell>
        <mxCell id="aLiUqm1xqDws6lzNXrsL-41" value="" style="rounded=0;whiteSpace=wrap;html=1;" parent="1" vertex="1">
          <mxGeometry x="260" y="419" width="400" height="20" as="geometry" />
        </mxCell>
        <mxCell id="SxJc4YhiPrX0EikQRIcs-1" value="Requestable" style="text;html=1;strokeColor=none;fillColor=none;align=left;verticalAlign=middle;whiteSpace=wrap;rounded=0;" parent="1" vertex="1">
          <mxGeometry x="160" y="480" width="90" height="20" as="geometry" />
        </mxCell>
        <mxCell id="SxJc4YhiPrX0EikQRIcs-7" value="" style="group" parent="1" vertex="1" connectable="0">
          <mxGeometry x="260" y="389" width="400" height="20" as="geometry" />
        </mxCell>
        <mxCell id="aLiUqm1xqDws6lzNXrsL-25" value="" style="rounded=0;whiteSpace=wrap;html=1;" parent="SxJc4YhiPrX0EikQRIcs-7" vertex="1">
          <mxGeometry width="400" height="20" as="geometry" />
        </mxCell>
        <mxCell id="SxJc4YhiPrX0EikQRIcs-5" value="" style="triangle;whiteSpace=wrap;html=1;rotation=90;fillColor=#4D4D4D;strokeColor=#4D4D4D;" parent="SxJc4YhiPrX0EikQRIcs-7" vertex="1">
          <mxGeometry x="384.5" y="4" width="9" height="13" as="geometry" />
        </mxCell>
        <mxCell id="SxJc4YhiPrX0EikQRIcs-11" value="" style="group" parent="1" vertex="1" connectable="0">
          <mxGeometry x="260" y="480" width="400" height="20" as="geometry" />
        </mxCell>
        <mxCell id="SxJc4YhiPrX0EikQRIcs-9" value="" style="rounded=0;whiteSpace=wrap;html=1;" parent="SxJc4YhiPrX0EikQRIcs-11" vertex="1">
          <mxGeometry width="400" height="20" as="geometry" />
        </mxCell>
        <mxCell id="SxJc4YhiPrX0EikQRIcs-10" value="" style="triangle;whiteSpace=wrap;html=1;rotation=90;fillColor=#4D4D4D;strokeColor=#4D4D4D;" parent="SxJc4YhiPrX0EikQRIcs-11" vertex="1">
          <mxGeometry x="384.5" y="4" width="9" height="13" as="geometry" />
        </mxCell>
        <mxCell id="675vnASs6G5oi35cF7ge-1" value="Basic attributes" style="rounded=0;whiteSpace=wrap;html=1;strokeWidth=2;fillColor=#D4E1F5;strokeColor=#4D4D4D;" parent="1" vertex="1">
          <mxGeometry x="250" y="110" width="100" height="80" as="geometry" />
        </mxCell>
        <mxCell id="675vnASs6G5oi35cF7ge-2" value="Access definition" style="rounded=0;whiteSpace=wrap;html=1;fillColor=#F5F5F5;strokeColor=#4D4D4D;strokeWidth=2;" parent="1" vertex="1">
          <mxGeometry x="370" y="110" width="100" height="80" as="geometry" />
        </mxCell>
        <mxCell id="675vnASs6G5oi35cF7ge-3" value="Members" style="rounded=0;whiteSpace=wrap;html=1;fillColor=#F5F5F5;strokeColor=#4D4D4D;strokeWidth=2;" parent="1" vertex="1">
          <mxGeometry x="610" y="110" width="100" height="80" as="geometry" />
        </mxCell>
        <mxCell id="675vnASs6G5oi35cF7ge-4" value="Assigned in" style="rounded=0;whiteSpace=wrap;html=1;fillColor=#F5F5F5;strokeColor=#4D4D4D;strokeWidth=2;" parent="1" vertex="1">
          <mxGeometry x="730" y="110" width="100" height="80" as="geometry" />
        </mxCell>
        <mxCell id="675vnASs6G5oi35cF7ge-5" value="Role history" style="rounded=0;whiteSpace=wrap;html=1;fillColor=#F5F5F5;strokeColor=#4D4D4D;strokeWidth=2;" parent="1" vertex="1">
          <mxGeometry x="850" y="110" width="100" height="80" as="geometry" />
        </mxCell>
        <mxCell id="675vnASs6G5oi35cF7ge-6" value="" style="endArrow=none;html=1;rounded=0;exitX=0;exitY=1;exitDx=0;exitDy=0;entryX=0;entryY=0;entryDx=0;entryDy=0;strokeWidth=2;" parent="1" source="675vnASs6G5oi35cF7ge-1" target="675vnASs6G5oi35cF7ge-1" edge="1">
          <mxGeometry width="50" height="50" relative="1" as="geometry">
            <mxPoint x="310" y="60" as="sourcePoint" />
            <mxPoint x="420" y="20" as="targetPoint" />
          </mxGeometry>
        </mxCell>
        <mxCell id="675vnASs6G5oi35cF7ge-7" value="Provisioning" style="rounded=0;whiteSpace=wrap;html=1;fillColor=#F5F5F5;strokeColor=#4D4D4D;strokeWidth=2;" parent="1" vertex="1">
          <mxGeometry x="490" y="110" width="100" height="80" as="geometry" />
        </mxCell>
        <mxCell id="675vnASs6G5oi35cF7ge-8" value="Overview" style="rounded=0;whiteSpace=wrap;html=1;strokeWidth=2;fillColor=#F5F5F5;strokeColor=#4D4D4D;" parent="1" vertex="1">
          <mxGeometry x="130" y="110" width="100" height="80" as="geometry" />
        </mxCell>
        <mxCell id="675vnASs6G5oi35cF7ge-9" value="Pending changes" style="rounded=0;whiteSpace=wrap;html=1;fillColor=#F5F5F5;strokeColor=#4D4D4D;strokeWidth=2;" parent="1" vertex="1">
          <mxGeometry x="970" y="110" width="100" height="80" as="geometry" />
        </mxCell>
      </root>
    </mxGraphModel>
  </diagram>
  <diagram id="5NcrntM6kYwPl-JwA5Nx" name="access-definition">
    <mxGraphModel dx="2058" dy="1180" grid="1" gridSize="10" guides="1" tooltips="1" connect="1" arrows="1" fold="1" page="1" pageScale="1" pageWidth="1169" pageHeight="827" math="0" shadow="0">
      <root>
        <mxCell id="0" />
        <mxCell id="1" parent="0" />
        <mxCell id="RwpUULHC08I6sktSR453-1" value="Basic attributes" style="rounded=0;whiteSpace=wrap;html=1;strokeWidth=2;fillColor=#F5F5F5;strokeColor=#4D4D4D;" parent="1" vertex="1">
          <mxGeometry x="250" y="110" width="100" height="80" as="geometry" />
        </mxCell>
        <mxCell id="RwpUULHC08I6sktSR453-2" value="Access definition" style="rounded=0;whiteSpace=wrap;html=1;fillColor=#D4E1F5;strokeColor=#4D4D4D;strokeWidth=2;" parent="1" vertex="1">
          <mxGeometry x="370" y="110" width="100" height="80" as="geometry" />
        </mxCell>
        <mxCell id="RwpUULHC08I6sktSR453-3" value="Members" style="rounded=0;whiteSpace=wrap;html=1;fillColor=#F5F5F5;strokeColor=#4D4D4D;strokeWidth=2;" parent="1" vertex="1">
          <mxGeometry x="610" y="110" width="100" height="80" as="geometry" />
        </mxCell>
        <mxCell id="RwpUULHC08I6sktSR453-4" value="Assigned in" style="rounded=0;whiteSpace=wrap;html=1;fillColor=#F5F5F5;strokeColor=#4D4D4D;strokeWidth=2;" parent="1" vertex="1">
          <mxGeometry x="730" y="110" width="100" height="80" as="geometry" />
        </mxCell>
        <mxCell id="RwpUULHC08I6sktSR453-5" value="Role history" style="rounded=0;whiteSpace=wrap;html=1;fillColor=#F5F5F5;strokeColor=#4D4D4D;strokeWidth=2;" parent="1" vertex="1">
          <mxGeometry x="850" y="110" width="100" height="80" as="geometry" />
        </mxCell>
        <mxCell id="RwpUULHC08I6sktSR453-6" value="" style="endArrow=none;html=1;rounded=0;exitX=0;exitY=1;exitDx=0;exitDy=0;entryX=0;entryY=0;entryDx=0;entryDy=0;strokeWidth=2;" parent="1" source="RwpUULHC08I6sktSR453-1" target="RwpUULHC08I6sktSR453-1" edge="1">
          <mxGeometry width="50" height="50" relative="1" as="geometry">
            <mxPoint x="310" y="60" as="sourcePoint" />
            <mxPoint x="420" y="20" as="targetPoint" />
          </mxGeometry>
        </mxCell>
        <mxCell id="RwpUULHC08I6sktSR453-7" value="Provisioning" style="rounded=0;whiteSpace=wrap;html=1;fillColor=#F5F5F5;strokeColor=#4D4D4D;strokeWidth=2;" parent="1" vertex="1">
          <mxGeometry x="490" y="110" width="100" height="80" as="geometry" />
        </mxCell>
        <mxCell id="RwpUULHC08I6sktSR453-8" value="Overview" style="rounded=0;whiteSpace=wrap;html=1;strokeWidth=2;fillColor=#F5F5F5;strokeColor=#4D4D4D;" parent="1" vertex="1">
          <mxGeometry x="130" y="110" width="100" height="80" as="geometry" />
        </mxCell>
        <mxCell id="RwpUULHC08I6sktSR453-9" value="Pending changes" style="rounded=0;whiteSpace=wrap;html=1;fillColor=#F5F5F5;strokeColor=#4D4D4D;strokeWidth=2;" parent="1" vertex="1">
          <mxGeometry x="970" y="110" width="100" height="80" as="geometry" />
        </mxCell>
      </root>
    </mxGraphModel>
  </diagram>
  <diagram id="JSM2O8C8AMMXaxiMn6yI" name="provisioning">
    <mxGraphModel dx="1659" dy="957" grid="1" gridSize="10" guides="1" tooltips="1" connect="1" arrows="1" fold="1" page="1" pageScale="1" pageWidth="1169" pageHeight="827" math="0" shadow="0">
      <root>
        <mxCell id="0" />
        <mxCell id="1" parent="0" />
        <mxCell id="OPdDVUqIqTezUAEAC0Pu-1" value="Basic attributes" style="rounded=0;whiteSpace=wrap;html=1;strokeWidth=2;fillColor=#F5F5F5;strokeColor=#4D4D4D;" vertex="1" parent="1">
          <mxGeometry x="250" y="110" width="100" height="80" as="geometry" />
        </mxCell>
        <mxCell id="OPdDVUqIqTezUAEAC0Pu-2" value="Access definition" style="rounded=0;whiteSpace=wrap;html=1;fillColor=#F5F5F5;strokeColor=#4D4D4D;strokeWidth=2;" vertex="1" parent="1">
          <mxGeometry x="370" y="110" width="100" height="80" as="geometry" />
        </mxCell>
        <mxCell id="OPdDVUqIqTezUAEAC0Pu-3" value="Members" style="rounded=0;whiteSpace=wrap;html=1;fillColor=#F5F5F5;strokeColor=#4D4D4D;strokeWidth=2;" vertex="1" parent="1">
          <mxGeometry x="610" y="110" width="100" height="80" as="geometry" />
        </mxCell>
        <mxCell id="OPdDVUqIqTezUAEAC0Pu-4" value="Assigned in" style="rounded=0;whiteSpace=wrap;html=1;fillColor=#F5F5F5;strokeColor=#4D4D4D;strokeWidth=2;" vertex="1" parent="1">
          <mxGeometry x="730" y="110" width="100" height="80" as="geometry" />
        </mxCell>
        <mxCell id="OPdDVUqIqTezUAEAC0Pu-5" value="Role history" style="rounded=0;whiteSpace=wrap;html=1;fillColor=#F5F5F5;strokeColor=#4D4D4D;strokeWidth=2;" vertex="1" parent="1">
          <mxGeometry x="850" y="110" width="100" height="80" as="geometry" />
        </mxCell>
        <mxCell id="OPdDVUqIqTezUAEAC0Pu-6" value="" style="endArrow=none;html=1;rounded=0;exitX=0;exitY=1;exitDx=0;exitDy=0;entryX=0;entryY=0;entryDx=0;entryDy=0;strokeWidth=2;" edge="1" parent="1" source="OPdDVUqIqTezUAEAC0Pu-1" target="OPdDVUqIqTezUAEAC0Pu-1">
          <mxGeometry width="50" height="50" relative="1" as="geometry">
            <mxPoint x="310" y="60" as="sourcePoint" />
            <mxPoint x="420" y="20" as="targetPoint" />
          </mxGeometry>
        </mxCell>
        <mxCell id="OPdDVUqIqTezUAEAC0Pu-7" value="Provisioning" style="rounded=0;whiteSpace=wrap;html=1;fillColor=#D4E1F5;strokeColor=#4D4D4D;strokeWidth=2;" vertex="1" parent="1">
          <mxGeometry x="490" y="110" width="100" height="80" as="geometry" />
        </mxCell>
        <mxCell id="OPdDVUqIqTezUAEAC0Pu-8" value="Overview" style="rounded=0;whiteSpace=wrap;html=1;strokeWidth=2;fillColor=#F5F5F5;strokeColor=#4D4D4D;" vertex="1" parent="1">
          <mxGeometry x="130" y="110" width="100" height="80" as="geometry" />
        </mxCell>
        <mxCell id="OPdDVUqIqTezUAEAC0Pu-9" value="Pending changes" style="rounded=0;whiteSpace=wrap;html=1;fillColor=#F5F5F5;strokeColor=#4D4D4D;strokeWidth=2;" vertex="1" parent="1">
          <mxGeometry x="970" y="110" width="100" height="80" as="geometry" />
        </mxCell>
      </root>
    </mxGraphModel>
  </diagram>
  <diagram id="s2mof7T__HCFlaoSI8t7" name="members">
    <mxGraphModel dx="1659" dy="957" grid="1" gridSize="10" guides="1" tooltips="1" connect="1" arrows="1" fold="1" page="1" pageScale="1" pageWidth="1169" pageHeight="827" math="0" shadow="0">
      <root>
        <mxCell id="0" />
        <mxCell id="1" parent="0" />
        <mxCell id="VvR9muJ7wtSGbmGnADt1-2" value="&amp;nbsp; &amp;lt;name&amp;gt;&amp;nbsp; &amp;nbsp; &amp;nbsp; &amp;lt;object archetype&amp;gt;&amp;nbsp; &amp;nbsp; &amp;nbsp; &amp;nbsp; &amp;nbsp; &amp;nbsp;&amp;lt;some assignment details - if relevant, relation&amp;gt;" style="rounded=0;whiteSpace=wrap;html=1;strokeColor=#4D4D4D;align=left;" vertex="1" parent="1">
          <mxGeometry x="160" y="280" width="580" height="20" as="geometry" />
        </mxCell>
        <mxCell id="VvR9muJ7wtSGbmGnADt1-3" value="&amp;nbsp; &amp;lt;name&amp;gt;&amp;nbsp; &amp;nbsp; &amp;nbsp; &amp;lt;object archetype&amp;gt;&amp;nbsp; &amp;nbsp; &amp;nbsp; &amp;nbsp; &amp;nbsp; &amp;nbsp;&amp;lt;indirect - via business role XYZ&amp;gt;" style="rounded=0;whiteSpace=wrap;html=1;strokeColor=#4D4D4D;align=left;" vertex="1" parent="1">
          <mxGeometry x="160" y="300" width="580" height="20" as="geometry" />
        </mxCell>
        <mxCell id="VvR9muJ7wtSGbmGnADt1-4" value="" style="rounded=0;whiteSpace=wrap;html=1;strokeColor=#4D4D4D;" vertex="1" parent="1">
          <mxGeometry x="160" y="320" width="580" height="20" as="geometry" />
        </mxCell>
        <mxCell id="VvR9muJ7wtSGbmGnADt1-5" value="" style="rounded=0;whiteSpace=wrap;html=1;strokeColor=#4D4D4D;" vertex="1" parent="1">
          <mxGeometry x="160" y="340" width="580" height="20" as="geometry" />
        </mxCell>
        <mxCell id="VvR9muJ7wtSGbmGnADt1-6" value="" style="rounded=0;whiteSpace=wrap;html=1;strokeColor=#4D4D4D;" vertex="1" parent="1">
          <mxGeometry x="160" y="360" width="580" height="20" as="geometry" />
        </mxCell>
        <mxCell id="VvR9muJ7wtSGbmGnADt1-7" value="" style="rounded=0;whiteSpace=wrap;html=1;strokeColor=#4D4D4D;" vertex="1" parent="1">
          <mxGeometry x="160" y="380" width="580" height="20" as="geometry" />
        </mxCell>
        <mxCell id="VvR9muJ7wtSGbmGnADt1-8" value="" style="rounded=0;whiteSpace=wrap;html=1;strokeColor=#4D4D4D;" vertex="1" parent="1">
          <mxGeometry x="160" y="400" width="580" height="20" as="geometry" />
        </mxCell>
        <mxCell id="VvR9muJ7wtSGbmGnADt1-9" value="" style="rounded=0;whiteSpace=wrap;html=1;strokeColor=#4D4D4D;" vertex="1" parent="1">
          <mxGeometry x="160" y="420" width="580" height="20" as="geometry" />
        </mxCell>
        <mxCell id="VvR9muJ7wtSGbmGnADt1-13" value="&amp;nbsp; &lt;b&gt;Name&lt;/b&gt;&amp;nbsp; &amp;nbsp; &amp;nbsp; &amp;nbsp; &amp;nbsp; &lt;b&gt;Archetype&amp;nbsp; &amp;nbsp; &amp;nbsp; &amp;nbsp; &amp;nbsp; &amp;nbsp; &amp;nbsp; &amp;nbsp; &amp;nbsp; &amp;nbsp; &amp;nbsp; &amp;nbsp;Details&lt;/b&gt;" style="rounded=0;whiteSpace=wrap;html=1;strokeColor=#4D4D4D;align=left;fillColor=#E6E6E6;" vertex="1" parent="1">
          <mxGeometry x="160" y="250" width="580" height="20" as="geometry" />
        </mxCell>
        <mxCell id="f1WM8UxXaKFcT8Bp5Qtk-4" value="&amp;nbsp;Show indirect members" style="dashed=0;labelPosition=right;align=left;shape=mxgraph.gmdl.checkbox;strokeColor=#666666;fillColor=none;strokeWidth=2;sketch=0;html=1;" vertex="1" parent="1">
          <mxGeometry x="680" y="217" width="16" height="16" as="geometry" />
        </mxCell>
        <mxCell id="EmLMDqY3GkQbW_Y0TsN9-1" value="Basic attributes" style="rounded=0;whiteSpace=wrap;html=1;strokeWidth=2;fillColor=#F5F5F5;strokeColor=#4D4D4D;" vertex="1" parent="1">
          <mxGeometry x="250" y="110" width="100" height="80" as="geometry" />
        </mxCell>
        <mxCell id="EmLMDqY3GkQbW_Y0TsN9-2" value="Access definition" style="rounded=0;whiteSpace=wrap;html=1;fillColor=#F5F5F5;strokeColor=#4D4D4D;strokeWidth=2;" vertex="1" parent="1">
          <mxGeometry x="370" y="110" width="100" height="80" as="geometry" />
        </mxCell>
        <mxCell id="EmLMDqY3GkQbW_Y0TsN9-3" value="Members" style="rounded=0;whiteSpace=wrap;html=1;fillColor=#D4E1F5;strokeColor=#4D4D4D;strokeWidth=2;" vertex="1" parent="1">
          <mxGeometry x="610" y="110" width="100" height="80" as="geometry" />
        </mxCell>
        <mxCell id="EmLMDqY3GkQbW_Y0TsN9-4" value="Assigned in" style="rounded=0;whiteSpace=wrap;html=1;fillColor=#F5F5F5;strokeColor=#4D4D4D;strokeWidth=2;" vertex="1" parent="1">
          <mxGeometry x="730" y="110" width="100" height="80" as="geometry" />
        </mxCell>
        <mxCell id="EmLMDqY3GkQbW_Y0TsN9-5" value="Role history" style="rounded=0;whiteSpace=wrap;html=1;fillColor=#F5F5F5;strokeColor=#4D4D4D;strokeWidth=2;" vertex="1" parent="1">
          <mxGeometry x="850" y="110" width="100" height="80" as="geometry" />
        </mxCell>
        <mxCell id="EmLMDqY3GkQbW_Y0TsN9-6" value="" style="endArrow=none;html=1;rounded=0;exitX=0;exitY=1;exitDx=0;exitDy=0;entryX=0;entryY=0;entryDx=0;entryDy=0;strokeWidth=2;" edge="1" parent="1" source="EmLMDqY3GkQbW_Y0TsN9-1" target="EmLMDqY3GkQbW_Y0TsN9-1">
          <mxGeometry width="50" height="50" relative="1" as="geometry">
            <mxPoint x="310" y="60" as="sourcePoint" />
            <mxPoint x="420" y="20" as="targetPoint" />
          </mxGeometry>
        </mxCell>
        <mxCell id="EmLMDqY3GkQbW_Y0TsN9-7" value="Provisioning" style="rounded=0;whiteSpace=wrap;html=1;fillColor=#F5F5F5;strokeColor=#4D4D4D;strokeWidth=2;" vertex="1" parent="1">
          <mxGeometry x="490" y="110" width="100" height="80" as="geometry" />
        </mxCell>
        <mxCell id="EmLMDqY3GkQbW_Y0TsN9-8" value="Overview" style="rounded=0;whiteSpace=wrap;html=1;strokeWidth=2;fillColor=#F5F5F5;strokeColor=#4D4D4D;" vertex="1" parent="1">
          <mxGeometry x="130" y="110" width="100" height="80" as="geometry" />
        </mxCell>
        <mxCell id="EmLMDqY3GkQbW_Y0TsN9-9" value="Pending changes" style="rounded=0;whiteSpace=wrap;html=1;fillColor=#F5F5F5;strokeColor=#4D4D4D;strokeWidth=2;" vertex="1" parent="1">
          <mxGeometry x="970" y="110" width="100" height="80" as="geometry" />
        </mxCell>
      </root>
    </mxGraphModel>
  </diagram>
  <diagram id="leiifyWtwlfsTiSBgW7Y" name="assigned-in">
    <mxGraphModel dx="1659" dy="957" grid="1" gridSize="10" guides="1" tooltips="1" connect="1" arrows="1" fold="1" page="1" pageScale="1" pageWidth="1169" pageHeight="827" math="0" shadow="0">
      <root>
        <mxCell id="0" />
        <mxCell id="1" parent="0" />
        <mxCell id="teErtcYoVNxu3d3Bdi9I-1" value="&amp;nbsp; &amp;lt;name&amp;gt;&amp;nbsp; &amp;nbsp; &amp;nbsp; &amp;lt;object archetype&amp;gt;&amp;nbsp; &amp;nbsp; &amp;nbsp; &amp;nbsp; &amp;nbsp; &amp;nbsp;&amp;lt;some details - if relevant&amp;gt;" style="rounded=0;whiteSpace=wrap;html=1;strokeColor=#4D4D4D;align=left;" vertex="1" parent="1">
          <mxGeometry x="160" y="280" width="580" height="20" as="geometry" />
        </mxCell>
        <mxCell id="teErtcYoVNxu3d3Bdi9I-2" value="" style="rounded=0;whiteSpace=wrap;html=1;strokeColor=#4D4D4D;" vertex="1" parent="1">
          <mxGeometry x="160" y="300" width="580" height="20" as="geometry" />
        </mxCell>
        <mxCell id="teErtcYoVNxu3d3Bdi9I-3" value="" style="rounded=0;whiteSpace=wrap;html=1;strokeColor=#4D4D4D;" vertex="1" parent="1">
          <mxGeometry x="160" y="320" width="580" height="20" as="geometry" />
        </mxCell>
        <mxCell id="teErtcYoVNxu3d3Bdi9I-4" value="" style="rounded=0;whiteSpace=wrap;html=1;strokeColor=#4D4D4D;" vertex="1" parent="1">
          <mxGeometry x="160" y="340" width="580" height="20" as="geometry" />
        </mxCell>
        <mxCell id="teErtcYoVNxu3d3Bdi9I-5" value="" style="rounded=0;whiteSpace=wrap;html=1;strokeColor=#4D4D4D;" vertex="1" parent="1">
          <mxGeometry x="160" y="360" width="580" height="20" as="geometry" />
        </mxCell>
        <mxCell id="teErtcYoVNxu3d3Bdi9I-6" value="" style="rounded=0;whiteSpace=wrap;html=1;strokeColor=#4D4D4D;" vertex="1" parent="1">
          <mxGeometry x="160" y="380" width="580" height="20" as="geometry" />
        </mxCell>
        <mxCell id="teErtcYoVNxu3d3Bdi9I-7" value="" style="rounded=0;whiteSpace=wrap;html=1;strokeColor=#4D4D4D;" vertex="1" parent="1">
          <mxGeometry x="160" y="400" width="580" height="20" as="geometry" />
        </mxCell>
        <mxCell id="teErtcYoVNxu3d3Bdi9I-8" value="" style="rounded=0;whiteSpace=wrap;html=1;strokeColor=#4D4D4D;" vertex="1" parent="1">
          <mxGeometry x="160" y="420" width="580" height="20" as="geometry" />
        </mxCell>
        <mxCell id="teErtcYoVNxu3d3Bdi9I-9" value="&amp;nbsp; &lt;b&gt;Name&lt;/b&gt;&amp;nbsp; &amp;nbsp; &amp;nbsp; &amp;nbsp; &amp;nbsp; &lt;b&gt;Archetype&amp;nbsp; &amp;nbsp; &amp;nbsp; &amp;nbsp; &amp;nbsp; &amp;nbsp; &amp;nbsp; &amp;nbsp; &amp;nbsp; &amp;nbsp; &amp;nbsp; &amp;nbsp;Details&lt;/b&gt;" style="rounded=0;whiteSpace=wrap;html=1;strokeColor=#4D4D4D;align=left;fillColor=#E6E6E6;" vertex="1" parent="1">
          <mxGeometry x="160" y="250" width="580" height="20" as="geometry" />
        </mxCell>
        <mxCell id="teErtcYoVNxu3d3Bdi9I-10" value="Roles" style="rounded=1;whiteSpace=wrap;html=1;" vertex="1" parent="1">
          <mxGeometry x="320" y="210" width="80" height="20" as="geometry" />
        </mxCell>
        <mxCell id="teErtcYoVNxu3d3Bdi9I-11" value="ORGs" style="rounded=1;whiteSpace=wrap;html=1;" vertex="1" parent="1">
          <mxGeometry x="420" y="210" width="80" height="20" as="geometry" />
        </mxCell>
        <mxCell id="teErtcYoVNxu3d3Bdi9I-12" value="Services" style="rounded=1;whiteSpace=wrap;html=1;" vertex="1" parent="1">
          <mxGeometry x="520" y="210" width="80" height="20" as="geometry" />
        </mxCell>
        <mxCell id="V4Y0_hKAOWsCurAbNNER-1" value="Basic attributes" style="rounded=0;whiteSpace=wrap;html=1;strokeWidth=2;fillColor=#F5F5F5;strokeColor=#4D4D4D;" vertex="1" parent="1">
          <mxGeometry x="250" y="110" width="100" height="80" as="geometry" />
        </mxCell>
        <mxCell id="V4Y0_hKAOWsCurAbNNER-2" value="Access definition" style="rounded=0;whiteSpace=wrap;html=1;fillColor=#F5F5F5;strokeColor=#4D4D4D;strokeWidth=2;" vertex="1" parent="1">
          <mxGeometry x="370" y="110" width="100" height="80" as="geometry" />
        </mxCell>
        <mxCell id="V4Y0_hKAOWsCurAbNNER-3" value="Members" style="rounded=0;whiteSpace=wrap;html=1;fillColor=#F5F5F5;strokeColor=#4D4D4D;strokeWidth=2;" vertex="1" parent="1">
          <mxGeometry x="610" y="110" width="100" height="80" as="geometry" />
        </mxCell>
        <mxCell id="V4Y0_hKAOWsCurAbNNER-4" value="Assigned in" style="rounded=0;whiteSpace=wrap;html=1;fillColor=#D4E1F5;strokeColor=#4D4D4D;strokeWidth=2;" vertex="1" parent="1">
          <mxGeometry x="730" y="110" width="100" height="80" as="geometry" />
        </mxCell>
        <mxCell id="V4Y0_hKAOWsCurAbNNER-5" value="Role history" style="rounded=0;whiteSpace=wrap;html=1;fillColor=#F5F5F5;strokeColor=#4D4D4D;strokeWidth=2;" vertex="1" parent="1">
          <mxGeometry x="850" y="110" width="100" height="80" as="geometry" />
        </mxCell>
        <mxCell id="V4Y0_hKAOWsCurAbNNER-6" value="" style="endArrow=none;html=1;rounded=0;exitX=0;exitY=1;exitDx=0;exitDy=0;entryX=0;entryY=0;entryDx=0;entryDy=0;strokeWidth=2;" edge="1" parent="1" source="V4Y0_hKAOWsCurAbNNER-1" target="V4Y0_hKAOWsCurAbNNER-1">
          <mxGeometry width="50" height="50" relative="1" as="geometry">
            <mxPoint x="310" y="60" as="sourcePoint" />
            <mxPoint x="420" y="20" as="targetPoint" />
          </mxGeometry>
        </mxCell>
        <mxCell id="V4Y0_hKAOWsCurAbNNER-7" value="Provisioning" style="rounded=0;whiteSpace=wrap;html=1;fillColor=#F5F5F5;strokeColor=#4D4D4D;strokeWidth=2;" vertex="1" parent="1">
          <mxGeometry x="490" y="110" width="100" height="80" as="geometry" />
        </mxCell>
        <mxCell id="V4Y0_hKAOWsCurAbNNER-8" value="Overview" style="rounded=0;whiteSpace=wrap;html=1;strokeWidth=2;fillColor=#F5F5F5;strokeColor=#4D4D4D;" vertex="1" parent="1">
          <mxGeometry x="130" y="110" width="100" height="80" as="geometry" />
        </mxCell>
        <mxCell id="V4Y0_hKAOWsCurAbNNER-9" value="Pending changes" style="rounded=0;whiteSpace=wrap;html=1;fillColor=#F5F5F5;strokeColor=#4D4D4D;strokeWidth=2;" vertex="1" parent="1">
          <mxGeometry x="970" y="110" width="100" height="80" as="geometry" />
        </mxCell>
      </root>
    </mxGraphModel>
  </diagram>
  <diagram id="zT7Xrl8V1M0wnKvTU67p" name="role-history">
    <mxGraphModel dx="1659" dy="957" grid="1" gridSize="10" guides="1" tooltips="1" connect="1" arrows="1" fold="1" page="1" pageScale="1" pageWidth="1169" pageHeight="827" math="0" shadow="0">
      <root>
        <mxCell id="0" />
        <mxCell id="1" parent="0" />
        <mxCell id="FnzbMgE23DQKNhxJHJuP-3" value="Audit deltas display (business view).&amp;nbsp;&lt;br&gt;Not displaying members modifications." style="rounded=0;whiteSpace=wrap;html=1;" vertex="1" parent="1">
          <mxGeometry x="160" y="280" width="490" height="140" as="geometry" />
        </mxCell>
        <mxCell id="rFOPR4jEu-n4yMi2oOr3-1" value="Basic attributes" style="rounded=0;whiteSpace=wrap;html=1;strokeWidth=2;fillColor=#F5F5F5;strokeColor=#4D4D4D;" vertex="1" parent="1">
          <mxGeometry x="250" y="110" width="100" height="80" as="geometry" />
        </mxCell>
        <mxCell id="rFOPR4jEu-n4yMi2oOr3-2" value="Access definition" style="rounded=0;whiteSpace=wrap;html=1;fillColor=#F5F5F5;strokeColor=#4D4D4D;strokeWidth=2;" vertex="1" parent="1">
          <mxGeometry x="370" y="110" width="100" height="80" as="geometry" />
        </mxCell>
        <mxCell id="rFOPR4jEu-n4yMi2oOr3-3" value="Members" style="rounded=0;whiteSpace=wrap;html=1;fillColor=#F5F5F5;strokeColor=#4D4D4D;strokeWidth=2;" vertex="1" parent="1">
          <mxGeometry x="610" y="110" width="100" height="80" as="geometry" />
        </mxCell>
        <mxCell id="rFOPR4jEu-n4yMi2oOr3-4" value="Assigned in" style="rounded=0;whiteSpace=wrap;html=1;fillColor=#F5F5F5;strokeColor=#4D4D4D;strokeWidth=2;" vertex="1" parent="1">
          <mxGeometry x="730" y="110" width="100" height="80" as="geometry" />
        </mxCell>
        <mxCell id="rFOPR4jEu-n4yMi2oOr3-5" value="Role history" style="rounded=0;whiteSpace=wrap;html=1;fillColor=#D4E1F5;strokeColor=#4D4D4D;strokeWidth=2;" vertex="1" parent="1">
          <mxGeometry x="850" y="110" width="100" height="80" as="geometry" />
        </mxCell>
        <mxCell id="rFOPR4jEu-n4yMi2oOr3-6" value="" style="endArrow=none;html=1;rounded=0;exitX=0;exitY=1;exitDx=0;exitDy=0;entryX=0;entryY=0;entryDx=0;entryDy=0;strokeWidth=2;" edge="1" parent="1" source="rFOPR4jEu-n4yMi2oOr3-1" target="rFOPR4jEu-n4yMi2oOr3-1">
          <mxGeometry width="50" height="50" relative="1" as="geometry">
            <mxPoint x="310" y="60" as="sourcePoint" />
            <mxPoint x="420" y="20" as="targetPoint" />
          </mxGeometry>
        </mxCell>
        <mxCell id="rFOPR4jEu-n4yMi2oOr3-7" value="Provisioning" style="rounded=0;whiteSpace=wrap;html=1;fillColor=#F5F5F5;strokeColor=#4D4D4D;strokeWidth=2;" vertex="1" parent="1">
          <mxGeometry x="490" y="110" width="100" height="80" as="geometry" />
        </mxCell>
        <mxCell id="rFOPR4jEu-n4yMi2oOr3-8" value="Overview" style="rounded=0;whiteSpace=wrap;html=1;strokeWidth=2;fillColor=#F5F5F5;strokeColor=#4D4D4D;" vertex="1" parent="1">
          <mxGeometry x="130" y="110" width="100" height="80" as="geometry" />
        </mxCell>
        <mxCell id="rFOPR4jEu-n4yMi2oOr3-9" value="Pending changes" style="rounded=0;whiteSpace=wrap;html=1;fillColor=#F5F5F5;strokeColor=#4D4D4D;strokeWidth=2;" vertex="1" parent="1">
          <mxGeometry x="970" y="110" width="100" height="80" as="geometry" />
        </mxCell>
        <mxCell id="J9H3NsN-jdkuBH51eTLE-1" value="Role modifications" style="text;html=1;strokeColor=none;fillColor=none;align=center;verticalAlign=middle;whiteSpace=wrap;rounded=0;" vertex="1" parent="1">
          <mxGeometry x="140" y="250" width="130" height="20" as="geometry" />
        </mxCell>
        <mxCell id="J9H3NsN-jdkuBH51eTLE-2" value="Role approval history" style="text;html=1;strokeColor=none;fillColor=none;align=center;verticalAlign=middle;whiteSpace=wrap;rounded=0;" vertex="1" parent="1">
          <mxGeometry x="140" y="440" width="130" height="20" as="geometry" />
        </mxCell>
        <mxCell id="J9H3NsN-jdkuBH51eTLE-3" value="History od cases related to approval of changes of the role. Here also modification of governance users." style="rounded=0;whiteSpace=wrap;html=1;" vertex="1" parent="1">
          <mxGeometry x="160" y="470" width="490" height="140" as="geometry" />
        </mxCell>
      </root>
    </mxGraphModel>
  </diagram>
  <diagram id="Lxs1k3YhjEhpeK2rrv-t" name="pending-changes">
    <mxGraphModel dx="2074" dy="1196" grid="1" gridSize="10" guides="1" tooltips="1" connect="1" arrows="1" fold="1" page="1" pageScale="1" pageWidth="1169" pageHeight="827" math="0" shadow="0">
      <root>
        <mxCell id="0" />
        <mxCell id="1" parent="0" />
        <mxCell id="e5ycstSv9kmgy_4sM8i_-1" value="Basic attributes" style="rounded=0;whiteSpace=wrap;html=1;strokeWidth=2;fillColor=#F5F5F5;strokeColor=#4D4D4D;" vertex="1" parent="1">
          <mxGeometry x="250" y="110" width="100" height="80" as="geometry" />
        </mxCell>
        <mxCell id="e5ycstSv9kmgy_4sM8i_-2" value="Access definition" style="rounded=0;whiteSpace=wrap;html=1;fillColor=#F5F5F5;strokeColor=#4D4D4D;strokeWidth=2;" vertex="1" parent="1">
          <mxGeometry x="370" y="110" width="100" height="80" as="geometry" />
        </mxCell>
        <mxCell id="e5ycstSv9kmgy_4sM8i_-3" value="Members" style="rounded=0;whiteSpace=wrap;html=1;fillColor=#F5F5F5;strokeColor=#4D4D4D;strokeWidth=2;" vertex="1" parent="1">
          <mxGeometry x="610" y="110" width="100" height="80" as="geometry" />
        </mxCell>
        <mxCell id="e5ycstSv9kmgy_4sM8i_-4" value="Assigned in" style="rounded=0;whiteSpace=wrap;html=1;fillColor=#F5F5F5;strokeColor=#4D4D4D;strokeWidth=2;" vertex="1" parent="1">
          <mxGeometry x="730" y="110" width="100" height="80" as="geometry" />
        </mxCell>
        <mxCell id="e5ycstSv9kmgy_4sM8i_-5" value="Role history" style="rounded=0;whiteSpace=wrap;html=1;fillColor=#F5F5F5;strokeColor=#4D4D4D;strokeWidth=2;" vertex="1" parent="1">
          <mxGeometry x="850" y="110" width="100" height="80" as="geometry" />
        </mxCell>
        <mxCell id="e5ycstSv9kmgy_4sM8i_-6" value="" style="endArrow=none;html=1;rounded=0;exitX=0;exitY=1;exitDx=0;exitDy=0;entryX=0;entryY=0;entryDx=0;entryDy=0;strokeWidth=2;" edge="1" parent="1" source="e5ycstSv9kmgy_4sM8i_-1" target="e5ycstSv9kmgy_4sM8i_-1">
          <mxGeometry width="50" height="50" relative="1" as="geometry">
            <mxPoint x="310" y="60" as="sourcePoint" />
            <mxPoint x="420" y="20" as="targetPoint" />
          </mxGeometry>
        </mxCell>
        <mxCell id="e5ycstSv9kmgy_4sM8i_-7" value="Provisioning" style="rounded=0;whiteSpace=wrap;html=1;fillColor=#F5F5F5;strokeColor=#4D4D4D;strokeWidth=2;" vertex="1" parent="1">
          <mxGeometry x="490" y="110" width="100" height="80" as="geometry" />
        </mxCell>
        <mxCell id="e5ycstSv9kmgy_4sM8i_-8" value="Overview" style="rounded=0;whiteSpace=wrap;html=1;strokeWidth=2;fillColor=#F5F5F5;strokeColor=#4D4D4D;" vertex="1" parent="1">
          <mxGeometry x="130" y="110" width="100" height="80" as="geometry" />
        </mxCell>
        <mxCell id="e5ycstSv9kmgy_4sM8i_-9" value="Pending changes" style="rounded=0;whiteSpace=wrap;html=1;fillColor=#D4E1F5;strokeColor=#4D4D4D;strokeWidth=2;" vertex="1" parent="1">
          <mxGeometry x="970" y="110" width="100" height="80" as="geometry" />
        </mxCell>
      </root>
    </mxGraphModel>
  </diagram>
</mxfile>
